ffmpeg started on 2016-12-08 at 07:28:19
Report written to "Output/x264/results/ffmpeg/sintelslower13000k.log"
Command line:
Tools/ffmpeg/ffmpeg -benchmark -y -i Input/y4m/sintel.y4m -c:v libx264 -preset slower -b:v 13000k -an Output/x264/encoded/sintelslower13000k.mkv
ffmpeg version N-82227-gdb23fde Copyright (c) 2000-2016 the FFmpeg developers
  built with gcc 5.4.0 (Ubuntu 5.4.0-6ubuntu1~16.04.2) 20160609
  configuration: --prefix=/home/jaroslav/ffmpeg_build --pkg-config-flags=--static --extra-cflags=-I/home/jaroslav/ffmpeg_build/include --extra-ldflags=-L/home/jaroslav/ffmpeg_build/lib --bindir=/home/jaroslav/bin --enable-gpl --enable-libass --enable-libfdk-aac --enable-libfreetype --enable-libmp3lame --enable-libopus --enable-libtheora --enable-libvorbis --enable-libvpx --enable-libx264 --enable-libx265 --enable-nvenc --enable-libmfx --enable-libxvid --enable-libgsm --enable-libopencore-amrnb --enable-version3 --enable-nonfree
  libavutil      55. 35.100 / 55. 35.100
  libavcodec     57. 66.101 / 57. 66.101
  libavformat    57. 57.100 / 57. 57.100
  libavdevice    57.  2.100 / 57.  2.100
  libavfilter     6. 66.100 /  6. 66.100
  libswscale      4.  3.100 /  4.  3.100
  libswresample   2.  4.100 /  2.  4.100
  libpostproc    54.  2.100 / 54.  2.100
Input #0, yuv4mpegpipe, from 'Input/y4m/sintel.y4m':
  Duration: 00:00:20.83, start: 0.000000, bitrate: 2057307 kb/s
    Stream #0:0: Video: rawvideo (I420 / 0x30323449), yuv420p(progressive), 4096x1744, SAR 1:1 DAR 256:109, 24 fps, 24 tbr, 24 tbn, 24 tbc
[libx264 @ 0x43ed1c0] using SAR=1/1
[libx264 @ 0x43ed1c0] DPB size (8 frames, 223232 mbs) > level limit (6 frames, 184320 mbs)
[libx264 @ 0x43ed1c0] using cpu capabilities: MMX2 SSE2Fast SSSE3 SSE4.2 AVX FMA3 AVX2 LZCNT BMI2
[libx264 @ 0x43ed1c0] profile High, level 5.2
[libx264 @ 0x43ed1c0] 264 - core 148 - H.264/MPEG-4 AVC codec - Copyleft 2003-2016 - http://www.videolan.org/x264.html - options: cabac=1 ref=8 deblock=1:0:0 analyse=0x3:0x133 me=umh subme=9 psy=1 psy_rd=1.00:0.00 mixed_ref=1 me_range=16 chroma_me=1 trellis=2 8x8dct=1 cqm=0 deadzone=21,11 fast_pskip=1 chroma_qp_offset=-2 threads=6 lookahead_threads=1 sliced_threads=0 nr=0 decimate=1 interlaced=0 bluray_compat=0 constrained_intra=0 bframes=3 b_pyramid=2 b_adapt=2 b_bias=0 direct=3 weightb=1 open_gop=0 weightp=2 keyint=250 keyint_min=24 scenecut=40 intra_refresh=0 rc_lookahead=60 rc=abr mbtree=1 bitrate=13000 ratetol=1.0 qcomp=0.60 qpmin=0 qpmax=69 qpstep=4 ip_ratio=1.40 aq=1:1.00
Output #0, matroska, to 'Output/x264/encoded/sintelslower13000k.mkv':
  Metadata:
    encoder         : Lavf57.57.100
    Stream #0:0: Video: h264 (libx264) (H264 / 0x34363248), yuv420p, 4096x1744 [SAR 1:1 DAR 256:109], q=-1--1, 13000 kb/s, 24 fps, 1k tbn, 24 tbc
    Metadata:
      encoder         : Lavc57.66.101 libx264
    Side data:
      cpb: bitrate max/min/avg: 0/0/13000000 buffer size: 0 vbv_delay: -1
Stream mapping:
  Stream #0:0 -> #0:0 (rawvideo (native) -> h264 (libx264))
Press [q] to stop, [?] for help
frame=   10 fps=0.0 q=0.0 size=       0kB time=00:00:00.00 bitrate=N/A speed=   0x    frame=   19 fps= 18 q=0.0 size=       0kB time=00:00:00.00 bitrate=N/A speed=   0x    frame=   28 fps= 17 q=0.0 size=       0kB time=00:00:00.00 bitrate=N/A speed=   0x    frame=   37 fps= 17 q=0.0 size=       0kB time=00:00:00.00 bitrate=N/A speed=   0x    frame=   46 fps= 17 q=0.0 size=       0kB time=00:00:00.00 bitrate=N/A speed=   0x    frame=   52 fps= 16 q=0.0 size=       0kB time=00:00:00.00 bitrate=N/A speed=   0x    frame=   61 fps= 17 q=0.0 size=       0kB time=00:00:00.00 bitrate=N/A speed=   0x    frame=   67 fps=6.3 q=0.0 size=       0kB time=00:00:00.00 bitrate=N/A speed=   0x    frame=   71 fps=6.3 q=22.0 size=       1kB time=-00:00:00.08 bitrate=N/A speed=N/A    frame=   73 fps=5.5 q=31.0 size=       1kB time=00:00:00.00 bitrate=5888.0kbits/s speed=7.58e-05x    frame=   74 fps=5.4 q=26.0 size=       1kB time=00:00:00.04 bitrate= 136.9kbits/s speed=0.00311x    frame=   75 fps=5.1 q=28.0 size=       1kB time=00:00:00.08 bitrate=  70.1kbits/s speed=0.0057x    frame=   77 fps=4.8 q=35.0 size=       1kB time=00:00:00.16 bitrate=  35.0kbits/s speed=0.0104x    frame=   80 fps=4.6 q=40.0 size=       1kB time=00:00:00.29 bitrate=  20.1kbits/s speed=0.0168x    frame=   81 fps=4.4 q=40.0 size=       1kB time=00:00:00.33 bitrate=  17.6kbits/s speed=0.0183x    frame=   83 fps=4.3 q=40.0 size=       1kB time=00:00:00.41 bitrate=  14.1kbits/s speed=0.0218x    frame=   86 fps=4.1 q=40.0 size=       1kB time=00:00:00.54 bitrate=  10.8kbits/s speed=0.0261x    frame=   89 fps=4.1 q=40.0 size=       1kB time=00:00:00.66 bitrate=   8.8kbits/s speed=0.031x    frame=   91 fps=4.1 q=39.0 size=       1kB time=00:00:00.75 bitrate=   7.8kbits/s speed=0.0338x    frame=   92 fps=3.9 q=39.0 size=       1kB time=00:00:00.79 bitrate=   7.4kbits/s speed=0.0338x    frame=   94 fps=3.9 q=39.0 size=       1kB time=00:00:00.87 bitrate=   6.7kbits/s speed=0.0363x    frame=   95 fps=3.9 q=39.0 size=       1kB time=00:00:00.91 bitrate=   6.4kbits/s speed=0.0372x    frame=   98 fps=3.8 q=39.0 size=       1kB time=00:00:01.04 bitrate=   5.6kbits/s speed=0.0401x    frame=   99 fps=3.7 q=38.0 size=       1kB time=00:00:01.08 bitrate=   5.4kbits/s speed=0.0405x    frame=  101 fps=3.7 q=38.0 size=       1kB time=00:00:01.16 bitrate=   5.0kbits/s speed=0.0426x    frame=  103 fps=3.7 q=38.0 size=       1kB time=00:00:01.25 bitrate=   4.7kbits/s speed=0.0444x    frame=  104 fps=3.6 q=38.0 size=       1kB time=00:00:01.29 bitrate=   4.6kbits/s speed=0.0443x    frame=  106 fps=3.6 q=38.0 size=       1kB time=00:00:01.37 bitrate=   4.3kbits/s speed=0.0462x    frame=  107 fps=3.5 q=38.0 size=       1kB time=00:00:01.41 bitrate=   4.2kbits/s speed=0.0467x    frame=  108 fps=3.5 q=38.0 size=       1kB time=00:00:01.45 bitrate=   4.0kbits/s speed=0.047x    frame=  110 fps=3.5 q=37.0 size=       1kB time=00:00:01.54 bitrate=   3.8kbits/s speed=0.0486x    frame=  112 fps=3.4 q=37.0 size=       1kB time=00:00:01.62 bitrate=   3.6kbits/s speed=0.05x    frame=  114 fps=3.4 q=37.0 size=       1kB time=00:00:01.70 bitrate=   3.4kbits/s speed=0.0512x    frame=  116 fps=3.4 q=37.0 size=       1kB time=00:00:01.79 bitrate=   3.3kbits/s speed=0.0522x    frame=  118 fps=3.4 q=37.0 size=       1kB time=00:00:01.87 bitrate=   3.1kbits/s speed=0.0533x    frame=  121 fps=3.3 q=36.0 size=       1kB time=00:00:02.00 bitrate=   2.9kbits/s speed=0.055x    frame=  123 fps=3.3 q=36.0 size=       1kB time=00:00:02.08 bitrate=   2.8kbits/s speed=0.0557x    frame=  124 fps=3.3 q=36.0 size=       1kB time=00:00:02.12 bitrate=   2.8kbits/s speed=0.0558x    frame=  125 fps=3.2 q=36.0 size=       1kB time=00:00:02.16 bitrate=   2.7kbits/s speed=0.0557x    frame=  127 fps=3.2 q=36.0 size=       1kB time=00:00:02.25 bitrate=   2.6kbits/s speed=0.0566x    frame=  128 fps=3.2 q=36.0 size=       1kB time=00:00:02.29 bitrate=   2.6kbits/s speed=0.0568x    frame=  129 fps=3.2 q=36.0 size=       1kB time=00:00:02.33 bitrate=   2.5kbits/s speed=0.0571x    frame=  130 fps=3.1 q=36.0 size=       1kB time=00:00:02.37 bitrate=   2.5kbits/s speed=0.0572x    frame=  131 fps=3.1 q=36.0 size=       1kB time=00:00:02.41 bitrate=   2.4kbits/s speed=0.0575x    frame=  132 fps=3.1 q=36.0 size=    5170kB time=00:00:02.45 bitrate=17224.5kbits/s speed=0.0574x    frame=  133 fps=3.1 q=36.0 size=    5170kB time=00:00:02.50 bitrate=16935.3kbits/s speed=0.0577x    frame=  134 fps=3.0 q=36.0 size=    5170kB time=00:00:02.54 bitrate=16655.6kbits/s speed=0.0578x    frame=  135 fps=3.0 q=36.0 size=    5170kB time=00:00:02.58 bitrate=16391.3kbits/s speed=0.0578x    frame=  137 fps=3.0 q=36.0 size=    5170kB time=00:00:02.66 bitrate=15875.2kbits/s speed=0.0585x    frame=  139 fps=3.0 q=36.0 size=    5170kB time=00:00:02.75 bitrate=15396.3kbits/s speed=0.0591x    frame=  141 fps=3.0 q=35.0 size=    5170kB time=00:00:02.83 bitrate=14945.4kbits/s speed=0.0596x    frame=  142 fps=2.9 q=35.0 size=    5170kB time=00:00:02.87 bitrate=14727.1kbits/s speed=0.0595x    frame=  144 fps=2.9 q=35.0 size=    5170kB time=00:00:02.95 bitrate=14314.0kbits/s speed=0.06x    frame=  145 fps=2.9 q=35.0 size=    5170kB time=00:00:03.00 bitrate=14113.7kbits/s speed=0.0602x    frame=  146 fps=2.9 q=35.0 size=    5170kB time=00:00:03.04 bitrate=13918.9kbits/s speed=0.0604x    frame=  148 fps=2.9 q=35.0 size=    5170kB time=00:00:03.12 bitrate=13549.3kbits/s speed=0.0606x    frame=  150 fps=2.8 q=35.0 size=    5170kB time=00:00:03.20 bitrate=13198.9kbits/s speed=0.0609x    frame=  152 fps=2.8 q=35.0 size=    5170kB time=00:00:03.29 bitrate=12862.2kbits/s speed=0.061x    frame=  154 fps=2.8 q=35.0 size=    5170kB time=00:00:03.37 bitrate=12546.0kbits/s speed=0.0616x    frame=  156 fps=2.8 q=35.0 size=    5170kB time=00:00:03.45 bitrate=12244.9kbits/s speed=0.0622x    frame=  158 fps=2.8 q=35.0 size=    5170kB time=00:00:03.54 bitrate=11954.6kbits/s speed=0.0623x    frame=  160 fps=2.7 q=34.0 size=    5170kB time=00:00:03.62 bitrate=11681.0kbits/s speed=0.0622x    frame=  162 fps=2.8 q=34.0 size=    5170kB time=00:00:03.70 bitrate=11419.6kbits/s speed=0.063x    frame=  164 fps=2.8 q=34.0 size=    5170kB time=00:00:03.79 bitrate=11166.7kbits/s speed=0.0637x    frame=  166 fps=2.7 q=34.0 size=    5170kB time=00:00:03.87 bitrate=10927.5kbits/s speed=0.0637x    frame=  167 fps=2.7 q=34.0 size=    5170kB time=00:00:03.91 bitrate=10810.4kbits/s speed=0.0634x    frame=  170 fps=2.7 q=34.0 size=    5170kB time=00:00:04.04 bitrate=10476.2kbits/s speed=0.0647x    frame=  172 fps=2.7 q=34.0 size=    5170kB time=00:00:04.12 bitrate=10265.4kbits/s speed=0.0651x    frame=  173 fps=2.7 q=34.0 size=    5170kB time=00:00:04.16 bitrate=10162.0kbits/s speed=0.0642x    frame=  176 fps=2.7 q=34.0 size=    5170kB time=00:00:04.29 bitrate=9866.1kbits/s speed=0.0655x    frame=  179 fps=2.7 q=34.0 size=    5170kB time=00:00:04.41 bitrate=9586.9kbits/s speed=0.0662x    frame=  181 fps=2.7 q=32.0 size=    5170kB time=00:00:04.50 bitrate=9410.2kbits/s speed=0.0665x    frame=  183 fps=2.7 q=34.0 size=    5170kB time=00:00:04.58 bitrate=9239.8kbits/s speed=0.0666x    frame=  186 fps=2.7 q=33.0 size=    7660kB time=00:00:04.70 bitrate=13326.4kbits/s speed=0.0679x    frame=  191 fps=2.7 q=33.0 size=    7660kB time=00:00:04.91 bitrate=12760.0kbits/s speed=0.0694x    frame=  193 fps=2.7 q=33.0 size=    7660kB time=00:00:05.00 bitrate=12548.3kbits/s speed=0.0699x    frame=  196 fps=2.7 q=33.0 size=    7660kB time=00:00:05.12 bitrate=12242.3kbits/s speed=0.0708x    frame=  197 fps=2.7 q=33.0 size=    7660kB time=00:00:05.16 bitrate=12142.8kbits/s speed=0.0705x    frame=  198 fps=2.7 q=33.0 size=    7660kB time=00:00:05.20 bitrate=12047.2kbits/s speed=0.0701x    frame=  200 fps=2.7 q=33.0 size=    7660kB time=00:00:05.29 bitrate=11856.0kbits/s speed=0.0706x    frame=  202 fps=2.7 q=33.0 size=    7660kB time=00:00:05.37 bitrate=11673.0kbits/s speed=0.0709x    frame=  204 fps=2.7 q=33.0 size=    7660kB time=00:00:05.45 bitrate=11495.5kbits/s speed=0.0713x    frame=  205 fps=2.6 q=33.0 size=    7660kB time=00:00:05.50 bitrate=11407.7kbits/s speed=0.071x    frame=  207 fps=2.6 q=33.0 size=    7660kB time=00:00:05.58 bitrate=11238.2kbits/s speed=0.0714x    frame=  209 fps=2.6 q=33.0 size=    7660kB time=00:00:05.66 bitrate=11071.6kbits/s speed=0.0718x    frame=  211 fps=2.6 q=33.0 size=    7660kB time=00:00:05.75 bitrate=10911.8kbits/s speed=0.0719x    frame=  213 fps=2.6 q=33.0 size=    7660kB time=00:00:05.83 bitrate=10756.6kbits/s speed=0.0722x    frame=  215 fps=2.6 q=33.0 size=    7660kB time=00:00:05.91 bitrate=10603.9kbits/s speed=0.0726x    frame=  217 fps=2.6 q=33.0 size=    7660kB time=00:00:06.00 bitrate=10457.2kbits/s speed=0.0729x    frame=  219 fps=2.6 q=33.0 size=    7660kB time=00:00:06.08 bitrate=10314.6kbits/s speed=0.0732x    frame=  220 fps=2.6 q=33.0 size=    7660kB time=00:00:06.12 bitrate=10243.9kbits/s speed=0.0733x    frame=  222 fps=2.6 q=33.0 size=    7660kB time=00:00:06.20 bitrate=10106.9kbits/s speed=0.0732x    frame=  225 fps=2.6 q=33.0 size=    7660kB time=00:00:06.33 bitrate=9907.5kbits/s speed=0.074x    frame=  228 fps=2.6 q=33.0 size=    7660kB time=00:00:06.45 bitrate=9715.7kbits/s speed=0.0736x    frame=  231 fps=2.6 q=32.0 size=    7660kB time=00:00:06.58 bitrate=9531.3kbits/s speed=0.0745x    frame=  232 fps=2.6 q=32.0 size=    7660kB time=00:00:06.62 bitrate=9470.9kbits/s speed=0.0745x    frame=  234 fps=2.6 q=32.0 size=    7660kB time=00:00:06.70 bitrate=9353.7kbits/s speed=0.0742x    frame=  236 fps=2.6 q=32.0 size=    7660kB time=00:00:06.79 bitrate=9238.0kbits/s speed=0.0746x    frame=  238 fps=2.6 q=32.0 size=    7660kB time=00:00:06.87 bitrate=9126.5kbits/s speed=0.075x    frame=  240 fps=2.6 q=32.0 size=    7660kB time=00:00:06.95 bitrate=9017.7kbits/s speed=0.075x    frame=  241 fps=2.6 q=32.0 size=    7660kB time=00:00:07.00 bitrate=8963.6kbits/s speed=0.0748x    frame=  243 fps=2.6 q=32.0 size=    7660kB time=00:00:07.08 bitrate=8858.5kbits/s speed=0.0753x    frame=  245 fps=2.6 q=32.0 size=    7660kB time=00:00:07.16 bitrate=8754.7kbits/s speed=0.0752x    frame=  247 fps=2.6 q=32.0 size=    7660kB time=00:00:07.25 bitrate=8654.5kbits/s speed=0.0756x    frame=  249 fps=2.6 q=30.0 size=    7660kB time=00:00:07.33 bitrate=8556.6kbits/s speed=0.0756x    frame=  250 fps=2.6 q=32.0 size=    7660kB time=00:00:07.37 bitrate=8507.9kbits/s speed=0.0754x    frame=  253 fps=2.6 q=32.0 size=    7660kB time=00:00:07.50 bitrate=8366.1kbits/s speed=0.0763x    frame=  258 fps=2.6 q=32.0 size=   11440kB time=00:00:07.70 bitrate=12156.3kbits/s speed=0.0776x    frame=  260 fps=2.6 q=32.0 size=   11440kB time=00:00:07.79 bitrate=12025.3kbits/s speed=0.0781x    frame=  262 fps=2.6 q=32.0 size=   11440kB time=00:00:07.87 bitrate=11898.6kbits/s speed=0.0784x    frame=  264 fps=2.6 q=32.0 size=   11440kB time=00:00:07.95 bitrate=11774.5kbits/s speed=0.0788x    frame=  266 fps=2.6 q=32.0 size=   11440kB time=00:00:08.04 bitrate=11651.5kbits/s speed=0.0789x    frame=  267 fps=2.6 q=32.0 size=   11440kB time=00:00:08.08 bitrate=11592.4kbits/s speed=0.0789x    frame=  269 fps=2.6 q=32.0 size=   11440kB time=00:00:08.16 bitrate=11473.2kbits/s speed=0.0786x    frame=  271 fps=2.6 q=32.0 size=   11440kB time=00:00:08.25 bitrate=11357.8kbits/s speed=0.079x    frame=  272 fps=2.6 q=32.0 size=   11440kB time=00:00:08.29 bitrate=11300.3kbits/s speed=0.0789x    frame=  274 fps=2.6 q=32.0 size=   11440kB time=00:00:08.37 bitrate=11188.3kbits/s speed=0.0789x    frame=  276 fps=2.6 q=32.0 size=   11440kB time=00:00:08.45 bitrate=11078.5kbits/s speed=0.079x    frame=  278 fps=2.6 q=31.0 size=   11440kB time=00:00:08.54 bitrate=10969.6kbits/s speed=0.0794x    frame=  279 fps=2.6 q=32.0 size=   11440kB time=00:00:08.58 bitrate=10917.2kbits/s speed=0.079x    frame=  283 fps=2.6 q=31.0 size=   11440kB time=00:00:08.75 bitrate=10708.8kbits/s speed=0.0796x    frame=  284 fps=2.6 q=31.0 size=   11440kB time=00:00:08.79 bitrate=10657.7kbits/s speed=0.0795x    frame=  287 fps=2.6 q=32.0 size=   11440kB time=00:00:08.91 bitrate=10508.3kbits/s speed=0.0797x    frame=  290 fps=2.6 q=32.0 size=   11440kB time=00:00:09.04 bitrate=10363.1kbits/s speed=0.0801x    frame=  293 fps=2.6 q=31.0 size=   11440kB time=00:00:09.16 bitrate=10221.8kbits/s speed=0.08x    frame=  295 fps=2.6 q=31.0 size=   11440kB time=00:00:09.25 bitrate=10130.0kbits/s speed=0.0803x    frame=  299 fps=2.6 q=31.0 size=   11440kB time=00:00:09.41 bitrate=9950.4kbits/s speed=0.0811x    frame=  301 fps=2.6 q=31.0 size=   11440kB time=00:00:09.50 bitrate=9863.5kbits/s speed=0.0805x    frame=  305 fps=2.6 q=31.0 size=   11440kB time=00:00:09.66 bitrate=9693.1kbits/s speed=0.0816x    frame=  307 fps=2.6 q=31.0 size=   11440kB time=00:00:09.75 bitrate=9610.6kbits/s speed=0.0811x    frame=  310 fps=2.6 q=31.0 size=   11440kB time=00:00:09.87 bitrate=9489.0kbits/s speed=0.0818x    frame=  311 fps=2.6 q=31.0 size=   11440kB time=00:00:09.91 bitrate=9448.8kbits/s speed=0.0816x    frame=  313 fps=2.6 q=31.0 size=   11440kB time=00:00:10.00 bitrate=9370.4kbits/s speed=0.0818x    frame=  317 fps=2.6 q=31.0 size=   11440kB time=00:00:10.16 bitrate=9216.5kbits/s speed=0.0825x    frame=  319 fps=2.6 q=31.0 size=   11440kB time=00:00:10.25 bitrate=9141.8kbits/s speed=0.0827x    frame=  320 fps=2.6 q=31.0 size=   11440kB time=00:00:10.29 bitrate=9104.5kbits/s speed=0.0822x    frame=  324 fps=2.6 q=31.0 size=   11440kB time=00:00:10.45 bitrate=8960.0kbits/s speed=0.083x    frame=  327 fps=2.6 q=31.0 size=   11440kB time=00:00:10.58 bitrate=8854.2kbits/s speed=0.0831x    frame=  330 fps=2.6 q=31.0 size=   11440kB time=00:00:10.70 bitrate=8750.9kbits/s speed=0.0837x    frame=  333 fps=2.6 q=31.0 size=   11440kB time=00:00:10.83 bitrate=8649.9kbits/s speed=0.0843x    frame=  334 fps=2.6 q=31.0 size=   11440kB time=00:00:10.87 bitrate=8616.5kbits/s speed=0.0843x    frame=  338 fps=2.6 q=30.0 size=   15757kB time=00:00:11.04 bitrate=11689.1kbits/s speed=0.0852x    frame=  341 fps=2.6 q=30.0 size=   15757kB time=00:00:11.16 bitrate=11558.3kbits/s speed=0.0859x    frame=  343 fps=2.6 q=30.0 size=   15757kB time=00:00:11.25 bitrate=11473.0kbits/s speed=0.086x    frame=  346 fps=2.6 q=30.0 size=   15757kB time=00:00:11.37 bitrate=11346.9kbits/s speed=0.0865x    frame=  348 fps=2.6 q=30.0 size=   15757kB time=00:00:11.45 bitrate=11264.7kbits/s speed=0.0863x    frame=  351 fps=2.6 q=30.0 size=   15757kB time=00:00:11.58 bitrate=11143.2kbits/s speed=0.0869x    frame=  354 fps=2.6 q=30.0 size=   15757kB time=00:00:11.70 bitrate=11024.2kbits/s speed=0.0872x    frame=  355 fps=2.6 q=30.0 size=   15757kB time=00:00:11.75 bitrate=10984.8kbits/s speed=0.0868x    frame=  360 fps=2.6 q=30.0 size=   15757kB time=00:00:11.95 bitrate=10793.8kbits/s speed=0.0878x    frame=  361 fps=2.6 q=30.0 size=   15757kB time=00:00:12.00 bitrate=10756.0kbits/s speed=0.0876x    frame=  363 fps=2.6 q=30.0 size=   15757kB time=00:00:12.08 bitrate=10682.1kbits/s speed=0.0879x    frame=  365 fps=2.6 q=30.0 size=   15757kB time=00:00:12.16 bitrate=10608.4kbits/s speed=0.0881x    frame=  368 fps=2.7 q=29.0 size=   15757kB time=00:00:12.29 bitrate=10500.5kbits/s speed=0.0886x    frame=  370 fps=2.7 q=30.0 size=   15757kB time=00:00:12.37 bitrate=10430.1kbits/s speed=0.0888x    frame=  374 fps=2.7 q=29.0 size=   15757kB time=00:00:12.54 bitrate=10291.2kbits/s speed=0.0891x    frame=  378 fps=2.7 q=29.0 size=   15757kB time=00:00:12.70 bitrate=10156.8kbits/s speed=0.0899x    frame=  382 fps=2.7 q=29.0 size=   15757kB time=00:00:12.87 bitrate=10025.1kbits/s speed=0.0904x    frame=  385 fps=2.7 q=29.0 size=   15757kB time=00:00:13.00 bitrate=9928.7kbits/s speed=0.0908x    frame=  387 fps=2.7 q=29.0 size=   15757kB time=00:00:13.08 bitrate=9865.7kbits/s speed=0.091x    frame=  389 fps=2.7 q=29.0 size=   15757kB time=00:00:13.16 bitrate=9802.8kbits/s speed=0.0913x    frame=  392 fps=2.7 q=29.0 size=   15757kB time=00:00:13.29 bitrate=9710.6kbits/s speed=0.0914x    frame=  396 fps=2.7 q=29.0 size=   15757kB time=00:00:13.45 bitrate=9590.8kbits/s speed=0.0921x    frame=  400 fps=2.7 q=28.0 size=   15757kB time=00:00:13.62 bitrate=9473.3kbits/s speed=0.0924x    frame=  403 fps=2.7 q=28.0 size=   15757kB time=00:00:13.75 bitrate=9387.1kbits/s speed=0.0929x    frame=  407 fps=2.7 q=28.0 size=   15757kB time=00:00:13.91 bitrate=9274.5kbits/s speed=0.0931x    frame=  412 fps=2.7 q=28.0 size=   15757kB time=00:00:14.12 bitrate=9137.9kbits/s speed=0.0941x    frame=  415 fps=2.7 q=28.0 size=   15757kB time=00:00:14.25 bitrate=9057.8kbits/s speed=0.094x    frame=  419 fps=2.8 q=28.0 size=   15757kB time=00:00:14.41 bitrate=8952.9kbits/s speed=0.0947x    frame=  423 fps=2.8 q=28.0 size=   15757kB time=00:00:14.58 bitrate=8851.0kbits/s speed=0.0951x    frame=  426 fps=2.8 q=27.0 size=   15757kB time=00:00:14.70 bitrate=8775.8kbits/s speed=0.0955x    frame=  428 fps=2.8 q=25.0 size=   15757kB time=00:00:14.79 bitrate=8725.9kbits/s speed=0.0957x    frame=  432 fps=2.8 q=27.0 size=   15757kB time=00:00:14.95 bitrate=8629.1kbits/s speed=0.0961x    frame=  438 fps=2.8 q=27.0 size=   19926kB time=00:00:15.20 bitrate=10732.7kbits/s speed=0.0972x    frame=  440 fps=2.8 q=27.0 size=   19926kB time=00:00:15.29 bitrate=10673.8kbits/s speed=0.0973x    frame=  442 fps=2.8 q=27.0 size=   19926kB time=00:00:15.37 bitrate=10616.1kbits/s speed=0.0974x    frame=  444 fps=2.8 q=27.0 size=   19926kB time=00:00:15.45 bitrate=10559.2kbits/s speed=0.0973x    frame=  447 fps=2.8 q=27.0 size=   19926kB time=00:00:15.58 bitrate=10474.5kbits/s speed=0.0974x    frame=  449 fps=2.8 q=27.0 size=   19926kB time=00:00:15.66 bitrate=10418.3kbits/s speed=0.0975x    frame=  450 fps=2.8 q=27.0 size=   19926kB time=00:00:15.70 bitrate=10391.1kbits/s speed=0.0972x    frame=  454 fps=2.8 q=27.0 size=   19926kB time=00:00:15.87 bitrate=10281.8kbits/s speed=0.0978x    frame=  455 fps=2.8 q=27.0 size=   19926kB time=00:00:15.91 bitrate=10254.7kbits/s speed=0.0978x    frame=  458 fps=2.8 q=27.0 size=   19926kB time=00:00:16.04 bitrate=10174.8kbits/s speed=0.0974x    frame=  461 fps=2.8 q=27.0 size=   19926kB time=00:00:16.16 bitrate=10096.1kbits/s speed=0.0978x    frame=  464 fps=2.8 q=27.0 size=   19926kB time=00:00:16.29 bitrate=10018.7kbits/s speed=0.0975x    frame=  466 fps=2.8 q=27.0 size=   19926kB time=00:00:16.37 bitrate=9967.9kbits/s speed=0.0976x    frame=  469 fps=2.8 q=27.0 size=   19926kB time=00:00:16.50 bitrate=9892.4kbits/s speed=0.098x    frame=  470 fps=2.8 q=27.0 size=   19926kB time=00:00:16.54 bitrate=9867.2kbits/s speed=0.0978x    frame=  471 fps=2.8 q=27.0 size=   19926kB time=00:00:16.58 bitrate=9842.9kbits/s speed=0.0971x    frame=  476 fps=2.8 q=27.0 size=   19926kB time=00:00:16.79 bitrate=9720.4kbits/s speed=0.098x    frame=  477 fps=2.8 q=27.0 size=   19926kB time=00:00:16.83 bitrate=9696.7kbits/s speed=0.0972x    frame=  481 fps=2.8 q=27.0 size=   19926kB time=00:00:17.00 bitrate=9601.4kbits/s speed=0.0978x    frame=  483 fps=2.8 q=27.0 size=   19926kB time=00:00:17.08 bitrate=9554.8kbits/s speed=0.0975x    frame=  486 fps=2.8 q=27.0 size=   19926kB time=00:00:17.20 bitrate=9485.4kbits/s speed=0.0979x    frame=  489 fps=2.8 q=27.0 size=   23675kB time=00:00:17.33 bitrate=11188.6kbits/s speed=0.0981x    frame=  494 fps=2.8 q=27.0 size=   23675kB time=00:00:17.54 bitrate=11055.4kbits/s speed=0.0987x    frame=  498 fps=2.8 q=27.0 size=   23675kB time=00:00:17.70 bitrate=10951.7kbits/s speed=0.0987x    frame=  500 fps=2.5 q=-1.0 Lsize=   29245kB time=00:00:20.70 bitrate=11568.6kbits/s speed=0.103x    
video:29240kB audio:0kB subtitle:0kB other streams:0kB global headers:0kB muxing overhead: 0.016723%
bench: utime=752.700s
bench: maxrss=2156048kB
[libx264 @ 0x43ed1c0] frame I:6     Avg QP:20.86  size:251916
[libx264 @ 0x43ed1c0] frame P:273   Avg QP:27.32  size: 73429
[libx264 @ 0x43ed1c0] frame B:221   Avg QP:26.22  size: 37933
[libx264 @ 0x43ed1c0] consecutive B-frames: 35.2% 11.6% 18.0% 35.2%
[libx264 @ 0x43ed1c0] mb I  I16..4: 19.0% 74.4%  6.6%
[libx264 @ 0x43ed1c0] mb P  I16..4: 20.3% 21.4%  0.4%  P16..4: 30.9%  3.1%  2.2%  0.0%  0.0%    skip:21.7%
[libx264 @ 0x43ed1c0] mb B  I16..4:  1.3%  2.4%  0.2%  B16..8: 34.8%  3.6%  0.7%  direct: 1.9%  skip:55.2%  L0:43.2% L1:52.9% BI: 3.9%
[libx264 @ 0x43ed1c0] final ratefactor: 24.40
[libx264 @ 0x43ed1c0] 8x8 transform intra:52.6% inter:84.3%
[libx264 @ 0x43ed1c0] direct mvs  spatial:99.1% temporal:0.9%
[libx264 @ 0x43ed1c0] coded y,uvDC,uvAC intra: 19.3% 29.5% 2.9% inter: 8.6% 9.3% 0.2%
[libx264 @ 0x43ed1c0] i16 v,h,dc,p: 21% 25% 10% 44%
[libx264 @ 0x43ed1c0] i8 v,h,dc,ddl,ddr,vr,hd,vl,hu: 15% 13% 22%  7%  9%  8% 10%  7%  9%
[libx264 @ 0x43ed1c0] i4 v,h,dc,ddl,ddr,vr,hd,vl,hu: 14% 15%  7%  7% 14% 11% 15%  7% 11%
[libx264 @ 0x43ed1c0] i8c dc,h,v,p: 63% 21% 11%  5%
[libx264 @ 0x43ed1c0] Weighted P-Frames: Y:1.1% UV:0.7%
[libx264 @ 0x43ed1c0] ref P L0: 65.5% 16.9%  8.6%  2.9%  1.9%  1.6%  1.3%  1.1%  0.2%  0.0%
[libx264 @ 0x43ed1c0] ref B L0: 88.2%  6.6%  2.7%  1.1%  0.7%  0.5%  0.3%
[libx264 @ 0x43ed1c0] ref B L1: 98.1%  1.9%
[libx264 @ 0x43ed1c0] kb/s:11497.33
